<svg id="分離模式" xmlns="http://www.w3.org/2000/svg" viewBox="0 0 55.36 55.36"><defs><style>.cls-1{fill:none;stroke:#f4bb1b;stroke-miterlimit:10;}.cls-2{fill:#f4bb1b;}.cls-3{fill:#d94114;}.cls-4{fill:#fff;}</style></defs><title>icon-p-circle</title><circle class="cls-1" cx="27.68" cy="27.68" r="27.18"/><circle class="cls-2" cx="27.68" cy="27.68" r="23.78"/><path class="cls-3" d="M65.85,178.2H54.41a.65.65,0,0,0-.62.52L48.7,207.6a.43.43,0,0,0,.43.53h4.6a.65.65,0,0,0,.61-.53l2-11.48h6.32a11.11,11.11,0,0,0,10.44-9c.87-4.94-2.4-9-7.28-9m-2.71,12.73H57.81a.42.42,0,0,1-.43-.52l1.14-6.5a.66.66,0,0,1,.62-.53h5.33a3.07,3.07,0,0,1,3.07,3.78,4.67,4.67,0,0,1-4.4,3.77" transform="translate(-31.94 -164.12)"/><path class="cls-4" d="M64.49,176.16H53.05a.65.65,0,0,0-.62.52l-5.09,28.88a.43.43,0,0,0,.43.53h4.6a.65.65,0,0,0,.61-.53l2-11.48h6.32a11.1,11.1,0,0,0,10.44-9c.87-4.94-2.39-9-7.28-9m-2.71,12.73H56.45a.42.42,0,0,1-.43-.52l1.14-6.5a.66.66,0,0,1,.62-.53h5.33a3.07,3.07,0,0,1,3.07,3.78,4.67,4.67,0,0,1-4.4,3.77" transform="translate(-31.94 -164.12)"/></svg>