<svg id="分離模式" xmlns="http://www.w3.org/2000/svg" viewBox="0 0 55.36 55.36"><defs><style>.cls-1{fill:none;stroke:#d84015;stroke-miterlimit:10;}.cls-2{fill:#d84015;}.cls-3{fill:#f4ba1b;}.cls-4{fill:#fff;}</style></defs><title>icon-p-orange</title><circle class="cls-1" cx="960" cy="539.67" r="27.18" transform="translate(-658.79 888.84) rotate(-80.78)"/><circle class="cls-2" cx="27.68" cy="27.68" r="23.78"/><path class="cls-3" d="M966.23,526.06H954.79a.66.66,0,0,0-.62.52l-5.09,28.89a.42.42,0,0,0,.43.52h4.6a.64.64,0,0,0,.61-.52l2-11.49h6.32a11.11,11.11,0,0,0,10.44-9c.87-4.94-2.4-9-7.28-9m-2.71,12.73h-5.33a.43.43,0,0,1-.44-.52l1.15-6.5a.65.65,0,0,1,.62-.52h5.33a3.06,3.06,0,0,1,3.07,3.77,4.68,4.68,0,0,1-4.4,3.77" transform="translate(-932.32 -511.99)"/><path class="cls-4" d="M964.87,524H953.43a.66.66,0,0,0-.62.53l-5.09,28.88a.42.42,0,0,0,.43.52h4.6a.64.64,0,0,0,.61-.52l2-11.49h6.32a11.11,11.11,0,0,0,10.44-9c.87-4.94-2.4-9-7.28-9m-2.71,12.73h-5.33a.43.43,0,0,1-.43-.53l1.14-6.5a.65.65,0,0,1,.62-.52h5.33a3.06,3.06,0,0,1,3.07,3.77,4.68,4.68,0,0,1-4.4,3.77" transform="translate(-932.32 -511.99)"/></svg>