<svg id="圖層_2" data-name="圖層 2" xmlns="http://www.w3.org/2000/svg" xmlns:xlink="http://www.w3.org/1999/xlink" viewBox="0 0 70.13 99.29"><defs><style>.cls-1{fill:none;}.cls-2{fill:#71c0da;}.cls-3{fill:#1d3a6c;}.cls-4{fill:#fff;}.cls-5{fill:#ebb926;}.cls-6{clip-path:url(#clip-path);}.cls-7{fill:#de6043;}.cls-8{fill:#f4bb1b;}</style><clipPath id="clip-path" transform="translate(-642.21 -7.59)"><rect class="cls-1" x="658.51" y="51.78" width="49.24" height="20.87" transform="translate(540.94 733.27) rotate(-83.24)"/></clipPath></defs><title>icon-card</title><rect class="cls-2" x="628.73" y="35.51" width="87.25" height="48.71" rx="4.59" ry="4.59" transform="translate(-108.43 712.91) rotate(-83.24)"/><path class="cls-3" d="M687.39,106.88c-.23,0-.47,0-.7,0l-39.25-4.66a5.91,5.91,0,0,1-5.19-6.58l9.19-77.52a5.92,5.92,0,0,1,5.88-5.23,5.48,5.48,0,0,1,.7,0l39.25,4.65a5.93,5.93,0,0,1,5.19,6.59l-9.18,77.52A5.94,5.94,0,0,1,687.39,106.88ZM657.32,15.52a3.25,3.25,0,0,0-3.22,2.87l-9.19,77.52a3.26,3.26,0,0,0,2.84,3.62L687,104.18a3.26,3.26,0,0,0,3.62-2.85l9.19-77.52A3.25,3.25,0,0,0,697,20.2l-39.25-4.66Z" transform="translate(-642.21 -7.59)"/><rect class="cls-4" x="637.68" y="36.57" width="69.58" height="40.14" rx="4.59" ry="4.59" transform="translate(-105.14 710.18) rotate(-83.24)"/><rect class="cls-5" x="665.04" y="86.07" width="5.35" height="21.41" rx="2.61" ry="2.61" transform="translate(-149.18 740.86) rotate(-83.24)"/><path class="cls-3" d="M675.75,101.2a2.82,2.82,0,0,1-.41,0l-16.08-1.91a3.42,3.42,0,0,1-3-3.79v-.13a3.42,3.42,0,0,1,3.79-3l16.08,1.91a3.42,3.42,0,0,1,3,3.79l0,.14A3.4,3.4,0,0,1,675.75,101.2ZM659.68,94a1.8,1.8,0,0,0-1.79,1.59l0,.13a1.81,1.81,0,0,0,1.58,2l16.08,1.91a1.83,1.83,0,0,0,2-1.59v-.13a1.81,1.81,0,0,0-1.58-2L659.89,94Z" transform="translate(-642.21 -7.59)"/><path class="cls-3" d="M669.23,80.77h-.16a1.33,1.33,0,0,1-1.17-1.48L673,36.22a1.34,1.34,0,1,1,2.66.32l-5.1,43.05A1.34,1.34,0,0,1,669.23,80.77Z" transform="translate(-642.21 -7.59)"/><path class="cls-3" d="M659.45,35.42h-.1a.8.8,0,0,1-.7-.89l.76-6.38a.8.8,0,0,1,1.59.19l-.75,6.38A.81.81,0,0,1,659.45,35.42Z" transform="translate(-642.21 -7.59)"/><path class="cls-3" d="M658.5,43.39h-.09a.81.81,0,0,1-.7-.9l.69-5.84a.8.8,0,1,1,1.59.19l-.69,5.84A.8.8,0,0,1,658.5,43.39Z" transform="translate(-642.21 -7.59)"/><path class="cls-3" d="M657.56,51.36h-.1a.8.8,0,0,1-.7-.89l.63-5.32a.81.81,0,0,1,1.6.19l-.63,5.32A.81.81,0,0,1,657.56,51.36Z" transform="translate(-642.21 -7.59)"/><path class="cls-3" d="M656.55,59.87h-.09a.81.81,0,0,1-.71-.89l.7-5.84a.8.8,0,1,1,1.59.18l-.69,5.85A.81.81,0,0,1,656.55,59.87Z" transform="translate(-642.21 -7.59)"/><path class="cls-3" d="M655.54,68.37h-.09a.79.79,0,0,1-.7-.89l.69-5.85a.8.8,0,0,1,1.59.19l-.69,5.85A.81.81,0,0,1,655.54,68.37Z" transform="translate(-642.21 -7.59)"/><path class="cls-3" d="M654.6,76.35h-.1a.8.8,0,0,1-.7-.89l.63-5.32a.79.79,0,0,1,.89-.7.81.81,0,0,1,.71.89l-.64,5.32A.79.79,0,0,1,654.6,76.35Z" transform="translate(-642.21 -7.59)"/><path class="cls-3" d="M653.84,82.73h-.09a.81.81,0,0,1-.71-.89l.45-3.72a.8.8,0,0,1,.89-.71.82.82,0,0,1,.7.9L654.64,82A.81.81,0,0,1,653.84,82.73Z" transform="translate(-642.21 -7.59)"/><g class="cls-6"><circle class="cls-7" cx="677.44" cy="55.42" r="14.61" transform="translate(-268.76 655.76) rotate(-68.11)"/><path class="cls-3" d="M677.46,70.84a15.91,15.91,0,0,1-1.83-.11A15.41,15.41,0,0,1,677.42,40a15.91,15.91,0,0,1,1.83.1,15.42,15.42,0,0,1-1.79,30.73Zm0-29.23a13.81,13.81,0,0,0-1.61,27.52,13,13,0,0,0,1.65.1,13.81,13.81,0,0,0,1.6-27.52A12.78,12.78,0,0,0,677.42,41.61Z" transform="translate(-642.21 -7.59)"/><path class="cls-8" d="M682.22,47.57l-7-.83a.41.41,0,0,0-.41.28l-5.2,17.25a.26.26,0,0,0,.23.35l2.8.33a.4.4,0,0,0,.42-.27l2.06-6.86,3.86.45a6.82,6.82,0,0,0,7-4.71,4.48,4.48,0,0,0-3.8-6m-2.57,7.57h0l-3.25-.38a.26.26,0,0,1-.23-.35l1.17-3.89a.4.4,0,0,1,.41-.27l3.26.38a1.9,1.9,0,0,1,1.6,2.53,2.88,2.88,0,0,1-3,2" transform="translate(-642.21 -7.59)"/><path class="cls-4" d="M681.54,46.23l-7-.83a.4.4,0,0,0-.41.28L669,62.93a.26.26,0,0,0,.23.35l2.8.33a.41.41,0,0,0,.42-.27l2.06-6.86,3.86.45a6.8,6.8,0,0,0,7-4.71,4.47,4.47,0,0,0-3.79-6M679,53.8h0l-3.26-.38a.27.27,0,0,1-.22-.35l1.17-3.89a.4.4,0,0,1,.41-.27l3.25.38a1.89,1.89,0,0,1,1.61,2.53,2.89,2.89,0,0,1-3,2" transform="translate(-642.21 -7.59)"/><path class="cls-4" d="M675.85,67.91a12.91,12.91,0,1,0,3-25.65,15.38,15.38,0,0,0-2.57-.06h0s-.27.07-.28.19h0c0,.15.09.29.22.25h.12a12.9,12.9,0,0,1,2.48,0,12.52,12.52,0,1,1-10.32,3.6s.21-.13.23-.26a.23.23,0,0,0-.2-.25c-.13,0-.31.22-.31.22a12.9,12.9,0,0,0,7.61,21.92Z" transform="translate(-642.21 -7.59)"/><path class="cls-4" d="M675,42.85a.25.25,0,0,1,.29-.23h0a.25.25,0,0,1,.22.29h0a.25.25,0,0,1-.29.22h0a.24.24,0,0,1-.22-.28Z" transform="translate(-642.21 -7.59)"/></g><circle class="cls-7" cx="700.68" cy="36.73" r="10.86" transform="translate(-221.61 672.46) rotate(-69.47)"/><path class="cls-3" d="M700.69,48.39a10.64,10.64,0,0,1-1.38-.08,11.66,11.66,0,0,1,1.36-23.24,12.77,12.77,0,0,1,1.38.08,11.66,11.66,0,0,1-1.36,23.24Zm0-21.72a10.06,10.06,0,0,0-1.17,20,11.87,11.87,0,0,0,1.19.07,10.06,10.06,0,0,0,1.17-20A11.87,11.87,0,0,0,700.67,26.67Z" transform="translate(-642.21 -7.59)"/><path class="cls-8" d="M704.23,30.9l-5.18-.62a.31.31,0,0,0-.31.21l-3.86,12.82a.19.19,0,0,0,.16.26l2.09.25a.31.31,0,0,0,.31-.21l1.53-5.1,2.87.34a5.07,5.07,0,0,0,5.21-3.5,3.32,3.32,0,0,0-2.82-4.45m-1.91,5.62h0l-2.42-.28a.19.19,0,0,1-.16-.26l.87-2.89a.27.27,0,0,1,.3-.2l2.42.28a1.41,1.41,0,0,1,1.19,1.88,2.14,2.14,0,0,1-2.2,1.47" transform="translate(-642.21 -7.59)"/><path class="cls-4" d="M703.73,29.9l-5.19-.62a.31.31,0,0,0-.31.21l-3.86,12.82a.19.19,0,0,0,.17.26l2.08.25a.31.31,0,0,0,.31-.21l1.54-5.1,2.86.34a5.06,5.06,0,0,0,5.22-3.5,3.32,3.32,0,0,0-2.82-4.45m-1.92,5.63h0l-2.41-.29a.19.19,0,0,1-.17-.26l.87-2.89a.3.3,0,0,1,.31-.2l2.41.29A1.39,1.39,0,0,1,704,34.05a2.13,2.13,0,0,1-2.2,1.48" transform="translate(-642.21 -7.59)"/><path class="cls-4" d="M699.5,46a9.62,9.62,0,0,0,10.66-8.4A9.4,9.4,0,0,0,702,27a4.32,4.32,0,0,0-1.67,0h0s-.43,0-.44.08h0c0,.11-.05.19,0,.16h0s0,0,0,0a9.15,9.15,0,0,1,1.81,0,9.29,9.29,0,1,1-10.34,8.13,9.2,9.2,0,0,1,2.64-5.46s.16-.1.17-.2a.17.17,0,0,0-.15-.18c-.09,0-.22.16-.22.16A9.58,9.58,0,0,0,699.5,46Z" transform="translate(-642.21 -7.59)"/><path class="cls-4" d="M698.89,27.38a.21.21,0,0,1,.22-.17h0a.21.21,0,0,1,.17.22h0a.2.2,0,0,1-.22.17h0a.2.2,0,0,1-.17-.22Z" transform="translate(-642.21 -7.59)"/><path class="cls-7" d="M687,17.8a8.42,8.42,0,1,1-7.37-9.35A8.41,8.41,0,0,1,687,17.8Z" transform="translate(-642.21 -7.59)"/><path class="cls-3" d="M678.6,26a10,10,0,0,1-1.09-.07,9.22,9.22,0,0,1,1.07-18.38,10,10,0,0,1,1.1.06A9.23,9.23,0,0,1,678.6,26Zm0-16.85a7.62,7.62,0,0,0-.88,15.19c.3,0,.6.05.9.05a7.62,7.62,0,0,0,.89-15.18A7,7,0,0,0,678.58,9.19Z" transform="translate(-642.21 -7.59)"/><path class="cls-8" d="M681.35,12.29l-4-.48a.24.24,0,0,0-.24.16l-3,9.94a.14.14,0,0,0,.12.2l1.62.2a.24.24,0,0,0,.24-.16l1.19-4,2.22.27a4,4,0,0,0,4-2.72,2.58,2.58,0,0,0-2.19-3.45m-1.48,4.36h0L678,16.43a.15.15,0,0,1-.13-.2l.68-2.24a.23.23,0,0,1,.23-.16l1.88.22a1.09,1.09,0,0,1,.92,1.46,1.64,1.64,0,0,1-1.7,1.14" transform="translate(-642.21 -7.59)"/><path class="cls-4" d="M681,11.52l-4-.48a.23.23,0,0,0-.23.16l-3,9.94a.15.15,0,0,0,.13.2l1.62.19a.24.24,0,0,0,.24-.16l1.19-3.95,2.22.26a3.91,3.91,0,0,0,4-2.71A2.57,2.57,0,0,0,681,11.52m-1.49,4.36h0l-1.87-.22a.15.15,0,0,1-.13-.2l.67-2.24a.24.24,0,0,1,.24-.16l1.87.22a1.09,1.09,0,0,1,.93,1.46,1.67,1.67,0,0,1-1.71,1.14" transform="translate(-642.21 -7.59)"/><path class="cls-4" d="M677.68,24a7.45,7.45,0,0,0,8.26-6.51,7.29,7.29,0,0,0-6.34-8.23,5.53,5.53,0,0,0-1.3,0h0s-.33,0-.34.08h0c0,.09,0,.15,0,.13h0s0,0,0,0a6.58,6.58,0,0,1,1.4,0,7.21,7.21,0,1,1-6,2.06s.12-.07.12-.14a.13.13,0,0,0-.11-.15c-.07,0-.18.13-.18.13a7.36,7.36,0,0,0-2.12,4.37A7.45,7.45,0,0,0,677.68,24Z" transform="translate(-642.21 -7.59)"/><path class="cls-4" d="M677.21,9.57a.15.15,0,0,1,.16-.14h0a.16.16,0,0,1,.14.17h0a.16.16,0,0,1-.17.13h0a.15.15,0,0,1-.13-.16Z" transform="translate(-642.21 -7.59)"/></svg>