<svg id="分離模式" xmlns="http://www.w3.org/2000/svg" viewBox="0 0 259.51 44.89"><defs><style>.cls-1{fill:#270089;}.cls-2{fill:#ff4438;}</style></defs><title>logo</title><path class="cls-1" d="M848,329.86h4a.55.55,0,0,1,.53.56l0,18.35a.55.55,0,0,1-.54.56h-4a.56.56,0,0,1-.54-.56v-1.5a9.8,9.8,0,0,1-3,2,8.4,8.4,0,0,1-3.23.61,9.15,9.15,0,0,1-6.76-2.91,10,10,0,0,1-2.86-7.27,10.2,10.2,0,0,1,2.74-7.39,8.87,8.87,0,0,1,6.69-2.89,8.67,8.67,0,0,1,3.41.65,9.3,9.3,0,0,1,2.94,2v-1.59a.55.55,0,0,1,.53-.56m-6.22,4.74a4.53,4.53,0,0,0-3.39,1.41,4.92,4.92,0,0,0-1.35,3.57,5,5,0,0,0,1.39,3.62,4.52,4.52,0,0,0,3.38,1.41,4.61,4.61,0,0,0,3.44-1.4,5,5,0,0,0,1.36-3.66,4.84,4.84,0,0,0-1.37-3.58,4.7,4.7,0,0,0-3.46-1.37" transform="translate(-614.14 -318.97)"/><path class="cls-1" d="M822.94,319.38l-11.36,0a.52.52,0,0,0-.52.52l.06,28.66a.52.52,0,0,0,.52.51h4.56a.53.53,0,0,0,.52-.52l0-11.4,6.27,0a8.89,8.89,0,0,0,0-17.78M822.5,332h-5.29a.52.52,0,0,1-.52-.52v-6.45a.51.51,0,0,1,.51-.52h5.29a3.75,3.75,0,0,1,0,7.49" transform="translate(-614.14 -318.97)"/><path class="cls-1" d="M873.11,329.81h-4.32a.6.6,0,0,0-.5.38L864.51,339l-3.83-8.78a.54.54,0,0,0-.49-.33h-4a.56.56,0,0,0-.49.78L861.9,345,860.63,348a.55.55,0,0,0,.24.69l3.52,1.88a.54.54,0,0,0,.75-.26l8.47-19.65a.58.58,0,0,0-.5-.8" transform="translate(-614.14 -318.97)"/><path class="cls-2" d="M863.41,352.35l-3.17-1.69a.54.54,0,0,0-.7.18l-.17.26a19.21,19.21,0,0,1-3.59,3.87,20.54,20.54,0,0,1-25.47,0,19.08,19.08,0,0,1-3.6-3.86l-.17-.25a.53.53,0,0,0-.7-.18l-3.17,1.69a.54.54,0,0,0-.27.57,1.34,1.34,0,0,0,.07.18c.11.18.26.41.44.67,1.94,3.05,7.56,10,19.89,10h.53c12.33,0,17.92-7,19.85-10.08.17-.27.31-.51.42-.71a.51.51,0,0,0,0-.57.5.5,0,0,0-.17-.15" transform="translate(-614.14 -318.97)"/><path class="cls-2" d="M794.22,323.48a15.21,15.21,0,0,0-21.66,0,15.51,15.51,0,0,0-4.14,7.75h-9a.37.37,0,0,0-.36.37v5.7a.36.36,0,0,0,.36.36h8.11a8.75,8.75,0,0,1-1.91,3,8.59,8.59,0,0,1-12.22,0,8.8,8.8,0,0,1,0-12.34,8.55,8.55,0,0,1,12-.25l-.06-.07a.29.29,0,0,0,.48-.09l0,.08a18.62,18.62,0,0,1,3.12-5.56l-.21.25a.47.47,0,0,0,0-.6,15.19,15.19,0,0,0-20,1.47h0a15.64,15.64,0,0,0,0,21.9,15.22,15.22,0,0,0,21.66-.05,15.83,15.83,0,0,0,4.46-10.95,9.09,9.09,0,0,1,2.52-6.18,8.56,8.56,0,0,1,12.21,0,8.79,8.79,0,0,1,0,12.34,8.59,8.59,0,0,1-12,.22l.09.1a.29.29,0,0,0-.48.1V341a18.65,18.65,0,0,1-3,5.47l.15-.18a.47.47,0,0,0,0,.55,15.16,15.16,0,0,0,20-1.43,15.63,15.63,0,0,0,0-21.9" transform="translate(-614.14 -318.97)"/><path class="cls-1" d="M684.23,332h-4.42V325.7h4.42a3.15,3.15,0,0,1,0,6.29m.43-12.32-10.88,0a.46.46,0,0,0-.46.47l0,29a.47.47,0,0,0,.47.47h5.55a.47.47,0,0,0,.46-.47l0-11.16h4.86a9.18,9.18,0,0,0,0-18.35" transform="translate(-614.14 -318.97)"/><path class="cls-1" d="M734.77,335.77l0,0,9.2-15.16a.73.73,0,0,0,.09-.35.68.68,0,0,0-.67-.68H738a1.2,1.2,0,0,0-1,.55l-5.37,9.39-5.42-9.37a1.22,1.22,0,0,0-1-.54h-5.46a.68.68,0,0,0-.67.68.64.64,0,0,0,.1.35l0,.06,9.27,15.14,0,13.26a.47.47,0,0,0,.47.47h5.42a.47.47,0,0,0,.46-.47Z" transform="translate(-614.14 -318.97)"/><path class="cls-1" d="M656.19,329.08l3,9.24-6,0Zm-5,15.29,10,0,1.58,4.81a.8.8,0,0,0,.81.52h5.61a.65.65,0,0,0,.53-.27.69.69,0,0,0,.11-.61l-10.4-28.56a.66.66,0,0,0-.66-.52h-5.25a.64.64,0,0,0-.65.52l-10.3,28.62a.73.73,0,0,0,.11.59.66.66,0,0,0,.53.27h5.63a.79.79,0,0,0,.81-.53Z" transform="translate(-614.14 -318.97)"/><path class="cls-1" d="M708.67,331.93h-4.42v-6.29h4.42a3.15,3.15,0,0,1,0,6.29m.43-12.32-10.88,0a.46.46,0,0,0-.46.47l.06,29a.46.46,0,0,0,.46.47h5.55a.47.47,0,0,0,.46-.47l0-11.16h4.87a9.18,9.18,0,0,0,0-18.35" transform="translate(-614.14 -318.97)"/><path class="cls-1" d="M639,320.22a.46.46,0,0,0-.46-.47h-5.7a.47.47,0,0,0-.46.47l0,11.84-11.62,0,0-11.84a.47.47,0,0,0-.46-.46h-5.7a.46.46,0,0,0-.46.47l.05,29a.47.47,0,0,0,.47.47l5.7,0a.47.47,0,0,0,.46-.46l0-11.18,11.62,0,0,11.17a.47.47,0,0,0,.46.47h5.7a.46.46,0,0,0,.46-.47Z" transform="translate(-614.14 -318.97)"/><path class="cls-1" d="M708.67,331.93h-4.42v-6.29h4.42a3.15,3.15,0,0,1,0,6.29m.43-12.32-10.88,0a.46.46,0,0,0-.46.47l.06,29a.46.46,0,0,0,.46.47h5.55a.47.47,0,0,0,.46-.47l0-11.16h4.87a9.18,9.18,0,0,0,0-18.35" transform="translate(-614.14 -318.97)"/></svg>