<svg id="圖層_2" data-name="圖層 2" xmlns="http://www.w3.org/2000/svg" xmlns:xlink="http://www.w3.org/1999/xlink" viewBox="0 0 603.41 173.21"><defs><style>.cls-1,.cls-2,.cls-6,.cls-8{fill:none;}.cls-2,.cls-4{stroke:#270089;}.cls-2,.cls-4,.cls-6,.cls-8{stroke-miterlimit:10;}.cls-3{fill:#270089;}.cls-11,.cls-4{fill:#fff;}.cls-5{fill:#f0871a;}.cls-6{stroke:#d94114;}.cls-7{fill:#f4bb1b;}.cls-8{stroke:#fff;}.cls-9{fill:#1f2f8e;}.cls-10{fill:url(#linear-gradient);}.cls-12{fill:#71c0da;}.cls-13{fill:#1d3a6c;}.cls-14{fill:#ebb926;}.cls-15{clip-path:url(#clip-path);}.cls-16{fill:#de6043;}</style><linearGradient id="linear-gradient" x1="460.77" y1="111.08" x2="429.46" y2="111.08" gradientUnits="userSpaceOnUse"><stop offset="0" stop-opacity="0"/><stop offset="1" stop-opacity="0.5"/></linearGradient><clipPath id="clip-path" transform="translate(-119.19 -7.59)"><rect class="cls-1" x="658.51" y="51.78" width="49.24" height="20.88" transform="translate(540.94 733.27) rotate(-83.24)"/></clipPath></defs><title>main-title</title><polygon class="cls-2" points="0.6 71.04 3.15 56.63 63.77 56.63 61.22 71.04 0.6 71.04"/><path class="cls-3" d="M180,66.32l-1.67,9.49H122.74l1.68-9.49Z" transform="translate(-119.19 -7.59)"/><path class="cls-2" d="M590.12,100.29,594.75,74h-2.11L588,100.29H574.74L579,75.85l-1,.85-.88-4.25A55.88,55.88,0,0,0,574.47,64l-.79-1.71,1.42-1.22a75.46,75.46,0,0,0,16.18-20.92l1-1.88,12.34,4.23-1.39,2.58h7c-.07-1-.18-2.2-.28-3l-.29-2.37,13.08-2.26.43,2.47c.17,1,.51,3.2.7,5.18h13.45L635.12,58h-3.6c-.68,1-1.41,2.49-2.14,3.48h7.35L634.5,74h-4.71l-4.58,26.34H611.63l.26-1.5h-8.31l-.3,1.5Zm24-13.92.23-1.49H606l-.24,1.49Zm1.33-24.85c.63-1,1.31-2.48,1.94-3.48h-4.79a27.82,27.82,0,0,1,.44,3.48Zm-15.55,0c-.12-1-.31-2.48-.55-3.48h-3.82l-.65,3.48Z" transform="translate(-119.19 -7.59)"/><path class="cls-3" d="M601,43.91a129.07,129.07,0,0,1-7.78,12.34L585.93,97.7H577.7l5.08-28.8c-1.09,1.07-2.1,2.08-3.16,3a58.46,58.46,0,0,0-2.9-8.95,77.89,77.89,0,0,0,16.76-21.65ZM597.17,74.5h30l-4,23h-8.53l.27-1.49H601.5l-.31,1.73h-8.11Zm36.6-10.73-1.35,7.69H593.18l1.35-7.69h8a36.33,36.33,0,0,0-.87-7.22L607,55.12h-8.65l1.34-7.58h13.06a42,42,0,0,0-.35-5.78l8.3-1.43a51.7,51.7,0,0,1,.82,7.21h12.82L633,55.12h-8.47l4.87,1.13c-1.54,2.69-3.08,5.31-4.48,7.52ZM604,82.08l-1.12,6.32h13.36l1.12-6.32Zm5.53-27a30.07,30.07,0,0,1,1.11,7.57l-3.71,1.08h10a75,75,0,0,0,4.32-8.65Z" transform="translate(-119.19 -7.59)"/><path class="cls-2" d="M320.78,101.45a30.36,30.36,0,0,0-4.63-3.33l-2.7-1.54,2.1-2a49.44,49.44,0,0,0,5-6.46h-.95l7.8-44.23h22.28l-.17.71L361.25,40l.88,2.28a61.81,61.81,0,0,1,2.05,6.4,66.8,66.8,0,0,0,4.74-6.73L370.05,40l12.77,5.65-2.62,2.7c-.44.43-.87.93-1.3,1.43H384l-2,10.93h-1.5l-1,6h2.86l-2,11.43h-2.86L376,86.58h-3.7A35.11,35.11,0,0,0,377,90.79l2.87,1.87-2.8,2a36.08,36.08,0,0,0-5.52,5.42l-1.64,2.07-2-1.77a24.42,24.42,0,0,1-3.06-3.28l-.94,5.38H342.49l.43-2.57c-.22.2-.45.34-.67.52l-2.55,2.08-1.31-3A17.54,17.54,0,0,0,337,97l-4.7,2.63-.79-3.17a30.07,30.07,0,0,0-1.15-3.45c-1.93,2.92-4.11,5.93-6,8.19l-1.71,2.08ZM350.5,49.81c-.26-1-.54-2.22-.77-3l-.38-1.31-.75,4.33Z" transform="translate(-119.19 -7.59)"/><path class="cls-3" d="M330.92,87.5a101.59,101.59,0,0,1-8.41,12.16,33,33,0,0,0-5.13-3.7,57.71,57.71,0,0,0,7.33-10.49Zm8.89-2.39H322.57l6.92-39.24h17.24Zm-5-11.21h-3.58l-.78,4.41H334Zm32.74,9.78a28.8,28.8,0,0,0,8,8.94,38.9,38.9,0,0,0-6,5.91,31.22,31.22,0,0,1-6.07-8.17l-1.67,9.48h-7.1l2.85-16.16H355.2l-2.83,16.1h-6.92l1.44-8.17a38.77,38.77,0,0,1-6.22,6.86,26.58,26.58,0,0,0-2.87-4.71L334,95.9a51.11,51.11,0,0,0-2.85-7.51l5.89-3c.81,1.49,1.63,3.28,2.3,4.89a45.25,45.25,0,0,0,6.05-6.62h-3.63l1.06-6h6.56l.41-2.33h-7.63l1.1-6.26h7.63l.4-2.27h-6.32l1.06-6h6.33l.45-2.57H346l1.09-6.2h6.5c-.32-1.91-.93-4.17-1.44-6l7.67-2.92A52.19,52.19,0,0,1,362,50.4l-4,1.61h6.56a70.36,70.36,0,0,0,6.44-8.83l7.41,3.28c-1.94,1.91-3.83,3.82-5.63,5.55H381l-1.09,6.2H369.18l-.46,2.57H378l-1.46,8.29h2.86l-1.11,6.26H375.4l-1.47,8.35ZM336.69,63.22h-3.58l-.77,4.36h3.58Zm1.86-10.55H335L334.21,57h3.58Zm20.1,25,.41-2.33h-2.38l-.41,2.33Zm-.87-8.59h2.39l.4-2.27h-2.39Zm1.46-8.29h2.39l.45-2.57H359.7Zm9.36,14.55h-2.44l-.41,2.33h2.44Zm-.94-8.53-.4,2.27h2.45l.4-2.27Z" transform="translate(-119.19 -7.59)"/><path class="cls-2" d="M182.14,104.57l11.67-62.22h25.82c5.89,0,10.21,1.32,12.84,4.28S236,53.73,235.1,59a19.33,19.33,0,0,1-7,12.28c-3.7,2.94-8.78,4.41-15.09,4.41h-5.77l-5.7,28.92Zm28.17-42.84c2.89,0,4.11-.75,4.58-1.1a3.32,3.32,0,0,0,1.34-2.13,1.91,1.91,0,0,0-.31-1.67h0s-.61-.56-3.25-.56h-2l-.91,5.46Z" transform="translate(-119.19 -7.59)"/><path class="cls-3" d="M195.88,44.46h23.75q7.77,0,11,3.63c2.14,2.43,2.82,5.87,2,10.35a17,17,0,0,1-6.12,10.78Q221.65,73.11,213,73.1h-7.82l-5.69,28.73H185.13Zm10.93,19.41h3.5q4.13,0,6.05-1.41a5.58,5.58,0,0,0,2.31-3.62,4.35,4.35,0,0,0-.81-3.63q-1.19-1.5-5.19-1.5H208.6Z" transform="translate(-119.19 -7.59)"/><path class="cls-4" d="M243.11,93.23c-4.68,0-8.18-1.18-10.41-3.5a9.85,9.85,0,0,1-2.57-8.89,13,13,0,0,1,4.1-7.59,17.86,17.86,0,0,1,7.84-3.71l-9.38-1,1.2-3a18.91,18.91,0,0,1,3.34-5.73,16.66,16.66,0,0,1,5.08-3.73,21,21,0,0,1,5.81-1.71,44.52,44.52,0,0,1,7.19-.56,53.54,53.54,0,0,1,9.62.68,12.27,12.27,0,0,1,6.68,3.36A9.9,9.9,0,0,1,274.17,63a16.2,16.2,0,0,1,.09,5.8l-2.57,14.57a15,15,0,0,0-.31,3.09,11.71,11.71,0,0,0,.6,2.78l1,3.27H255.87l-.62-1.61-.23-.62a19.68,19.68,0,0,1-2.86,1.39A25.69,25.69,0,0,1,243.11,93.23ZM248,81.08a2.74,2.74,0,0,0,1.13.16,6.59,6.59,0,0,0,3.05-.76,5.67,5.67,0,0,0,2.15-1.71,5,5,0,0,0,.46-.83l-1.85.47c-3.36.84-4.19,1.42-4.32,1.52-.54.44-.59.74-.61.84a1,1,0,0,0,0,.31Zm7.62-14.82a7.43,7.43,0,0,0-3.68.68,2.71,2.71,0,0,0-.8.75c1.22-.26,2.13-.46,2.73-.62.83-.21,1.71-.46,2.62-.76A6.58,6.58,0,0,0,255.66,66.26Z" transform="translate(-119.19 -7.59)"/><path class="cls-3" d="M248.25,67.69,236.2,66.42a17,17,0,0,1,2.88-5,14.21,14.21,0,0,1,4.33-3.15,18.48,18.48,0,0,1,5.12-1.49,41.62,41.62,0,0,1,6.78-.53,51.33,51.33,0,0,1,9.16.64,9.78,9.78,0,0,1,5.37,2.66,7.44,7.44,0,0,1,1.89,4,13.23,13.23,0,0,1,.08,4.89L269.24,83a17.16,17.16,0,0,0-.34,3.65,13.93,13.93,0,0,0,.71,3.37H257.56a10.5,10.5,0,0,1-.6-1.94,13.39,13.39,0,0,1-.07-2.1,21,21,0,0,1-5.62,3.42,23.12,23.12,0,0,1-8.16,1.37c-4,0-6.87-.92-8.62-2.74a7.35,7.35,0,0,1-1.92-6.74,10.52,10.52,0,0,1,3.33-6.18q2.67-2.43,8.9-3.61,7.48-1.42,9.73-2a48.05,48.05,0,0,0,4.8-1.51c.28-1.55.14-2.64-.4-3.26s-1.63-.93-3.27-.93a10.06,10.06,0,0,0-4.91,1A7,7,0,0,0,248.25,67.69Zm10,6.65c-1.88.62-3.81,1.17-5.81,1.65-2.73.68-4.5,1.36-5.31,2a3.87,3.87,0,0,0-1.48,2.33,2.68,2.68,0,0,0,.62,2.44,3.92,3.92,0,0,0,2.94.94,9.24,9.24,0,0,0,4.18-1,8,8,0,0,0,3-2.5,9.35,9.35,0,0,0,1.45-3.84Z" transform="translate(-119.19 -7.59)"/><path class="cls-4" d="M282.56,105.87a73.75,73.75,0,0,1-8.77-.76l-2.3-.3.89-14.36,3.06,1a16.55,16.55,0,0,0,5.24.75,4.5,4.5,0,0,0,2.5-.63,5.35,5.35,0,0,0,1.73-1.84l-8.77-35H295l2.18,15.79,7.4-15.79h18.45L301.51,93.59c-2.41,4.36-4.61,7.21-6.72,8.84C291.77,104.76,287.66,105.87,282.56,105.87Z" transform="translate(-119.19 -7.59)"/><path class="cls-3" d="M279.32,57h13.55l3,22,10.29-22h12.66L299.34,92.26q-3.33,6-6.07,8.14-3.87,3-10.71,3a71.12,71.12,0,0,1-8.45-.75l.55-8.82a19,19,0,0,0,6,.87,6.87,6.87,0,0,0,3.85-1,9.79,9.79,0,0,0,3-3.67Z" transform="translate(-119.19 -7.59)"/><path class="cls-5" d="M392.91,86.31l5.36-30.38,35.85-22.75h29.2l-25.65,146h-29.2l20.29-115.6h-.16Z" transform="translate(-119.19 -7.59)"/><path class="cls-5" d="M530.91,31.56c16.17,0,27.38,4.71,33.44,14.3,6.23,9.58,7.47,25,3.66,46.62s-10.49,37-20.1,46.63c-9.44,9.58-22.32,14.29-38.48,14.29s-27.38-4.71-33.61-14.29c-6.06-9.59-7.3-25-3.49-46.63s10.49-37,19.93-46.62C501.87,36.27,514.74,31.56,530.91,31.56ZM513.12,132.45c6.6,0,11.9-2.93,16.09-8.94s7.65-16.24,10.26-31,2.76-25,.69-31-6.35-8.93-12.94-8.93S515.15,55.44,511,61.45s-7.49,16.25-10.09,31-2.93,25-.85,31S506.52,132.45,513.12,132.45Z" transform="translate(-119.19 -7.59)"/><polygon class="cls-6" points="281.42 172.71 301.27 59.46 265.39 82.24 271.92 45.28 309.31 21.63 342.19 21.63 315.67 172.71 281.42 172.71"/><path class="cls-6" d="M504.52,154.19c-17,0-29-5.19-35.69-15.43s-7.78-26.14-3.85-48.41c3.85-21.84,10.78-38,20.61-47.94,10-10,23.6-15,40.41-15,17.1,0,29.06,5.19,35.55,15.45s7.94,26,4,48.38-10.72,37.91-20.79,48C534.94,149.13,521.4,154.19,504.52,154.19ZM522.31,53.3c-5.87,0-10.52,2.58-14.22,7.87-3.95,5.66-7.12,15.49-9.68,30-2.52,14.3-2.84,24.32-1,29.79,1.71,5,5.13,7.26,10.75,7.26,5.77,0,10.36-2.57,14.06-7.87,4-5.79,7.35-15.9,9.85-30s2.74-24.1.78-29.79C531.17,55.54,527.9,53.3,522.31,53.3Z" transform="translate(-119.19 -7.59)"/><path class="cls-7" d="M388,84.61l5.35-30.38,35.85-22.75h29.2l-25.64,146h-29.2l20.29-115.6h-.17Z" transform="translate(-119.19 -7.59)"/><polygon class="cls-8" points="286.16 168.73 306.44 52.94 304.07 52.94 270.88 74.02 275.53 47.7 310.46 25.61 337.45 25.61 312.33 168.73 286.16 168.73"/><polygon class="cls-9" points="598.42 125.25 425.97 125.25 430.96 96.92 603.41 96.92 598.42 125.25"/><polygon class="cls-10" points="450.82 125.25 428.45 125.25 433.45 96.92 455.81 96.92 450.82 125.25"/><path class="cls-7" d="M526,29.86c16.17,0,27.38,4.71,33.45,14.3s7.46,25,3.65,46.62-10.49,37-20.1,46.63c-9.44,9.58-22.31,14.29-38.48,14.29s-27.38-4.71-33.61-14.29c-6.06-9.59-7.3-25-3.49-46.63s10.49-37,19.94-46.62S509.84,29.86,526,29.86ZM508.21,130.75c6.6,0,11.9-2.93,16.1-8.94s7.65-16.24,10.25-31,2.76-25,.69-31-6.34-8.93-12.94-8.93-12.06,2.92-16.26,8.93S498.57,76,496,90.78s-2.93,25-.85,31S501.62,130.75,508.21,130.75Z" transform="translate(-119.19 -7.59)"/><path class="cls-8" d="M504.52,150.21c-15.82,0-26.4-4.45-32.36-13.61S465.2,112,468.89,91s10.28-36.45,19.53-45.84S510.06,31.35,526,31.35c15.65,0,26.48,4.58,32.19,13.6,6,9.23,7.15,24.56,3.44,45.57S551.29,127,542,136.35C532.89,145.55,520.29,150.21,504.52,150.21ZM522.31,49.33c-7.17,0-13,3.22-17.48,9.57-4.29,6.14-7.67,16.49-10.34,31.62s-2.93,25.57-.79,31.78c2.28,6.59,7.16,9.94,14.51,9.94,7.06,0,12.89-3.22,17.32-9.58S533.44,105.76,536,91c2.64-15,2.84-25.36.63-31.77C534.38,52.67,529.55,49.33,522.31,49.33Z" transform="translate(-119.19 -7.59)"/><path class="cls-11" d="M565.61,122.71c3.68-2.82,5.7-4.92,6-6.7.21-1.17-.28-2-1.49-2a3.61,3.61,0,0,0-2.34,1.2l-.79-.94a5.18,5.18,0,0,1,3.58-1.61,2.51,2.51,0,0,1,2.68,3.24c-.36,2.09-2.4,4.25-5.08,6.43.57-.06,1.25-.1,1.78-.1h2.7l-.25,1.44h-7Z" transform="translate(-119.19 -7.59)"/><path class="cls-11" d="M576.28,118.24c.66-3.74,2.34-5.56,4.47-5.56s3.17,1.83,2.51,5.56-2.37,5.64-4.48,5.64S575.61,122,576.28,118.24Zm5.37,0c.55-3.1,0-4.23-1.13-4.23s-2.08,1.13-2.63,4.23,0,4.3,1.12,4.3S581.1,121.37,581.65,118.24Z" transform="translate(-119.19 -7.59)"/><path class="cls-11" d="M585.28,122.71c3.69-2.82,5.7-4.92,6-6.7.21-1.17-.28-2-1.48-2a3.61,3.61,0,0,0-2.34,1.2l-.79-.94a5.15,5.15,0,0,1,3.57-1.61,2.52,2.52,0,0,1,2.69,3.24c-.37,2.09-2.41,4.25-5.08,6.43.56-.06,1.25-.1,1.77-.1h2.71l-.26,1.44h-7Z" transform="translate(-119.19 -7.59)"/><path class="cls-11" d="M596,118.24c.66-3.74,2.35-5.56,4.48-5.56s3.17,1.83,2.51,5.56-2.38,5.64-4.49,5.64S595.29,122,596,118.24Zm5.37,0c.55-3.1,0-4.23-1.13-4.23s-2.08,1.13-2.62,4.23,0,4.3,1.12,4.3S600.77,121.37,601.32,118.24Z" transform="translate(-119.19 -7.59)"/><path class="cls-11" d="M607.09,118.22h.55l-3.09,6.7H604Z" transform="translate(-119.19 -7.59)"/><path class="cls-11" d="M609,122.29h2.37l1.32-7.51h-1.93l.18-1.07a7.64,7.64,0,0,0,2.5-.83h1.28l-1.67,9.41h2.12l-.25,1.4h-6.16Z" transform="translate(-119.19 -7.59)"/><path class="cls-11" d="M620.28,118.22h.55l-3.08,6.7h-.55Z" transform="translate(-119.19 -7.59)"/><path class="cls-11" d="M622.2,122.29h2.36l1.33-7.51H624l.19-1.07a7.49,7.49,0,0,0,2.49-.83h1.28l-1.66,9.41h2.11l-.24,1.4H622Z" transform="translate(-119.19 -7.59)"/><path class="cls-11" d="M632.06,118.92h3.87l-.22,1.25h-3.87Z" transform="translate(-119.19 -7.59)"/><path class="cls-11" d="M638.06,122.71c3.68-2.82,5.69-4.92,6-6.7.2-1.17-.29-2-1.49-2a3.61,3.61,0,0,0-2.34,1.2l-.79-.94a5.17,5.17,0,0,1,3.57-1.61,2.52,2.52,0,0,1,2.69,3.24c-.37,2.09-2.41,4.25-5.08,6.43.57-.06,1.25-.1,1.78-.1h2.7l-.25,1.44h-7Z" transform="translate(-119.19 -7.59)"/><path class="cls-11" d="M648.72,118.24c.66-3.74,2.35-5.56,4.48-5.56s3.17,1.83,2.51,5.56-2.37,5.64-4.49,5.64S648.06,122,648.72,118.24Zm5.38,0c.54-3.1,0-4.23-1.14-4.23s-2.08,1.13-2.62,4.23,0,4.3,1.12,4.3S653.55,121.37,654.1,118.24Z" transform="translate(-119.19 -7.59)"/><path class="cls-11" d="M657.73,122.71c3.68-2.82,5.7-4.92,6-6.7.21-1.17-.28-2-1.48-2a3.61,3.61,0,0,0-2.35,1.2l-.78-.94a5.15,5.15,0,0,1,3.57-1.61,2.52,2.52,0,0,1,2.69,3.24c-.37,2.09-2.41,4.25-5.09,6.43.57-.06,1.25-.1,1.78-.1h2.7l-.25,1.44h-7Z" transform="translate(-119.19 -7.59)"/><path class="cls-11" d="M668.4,118.24c.66-3.74,2.35-5.56,4.47-5.56s3.17,1.83,2.52,5.56-2.38,5.64-4.49,5.64S667.74,122,668.4,118.24Zm5.37,0c.55-3.1,0-4.23-1.13-4.23s-2.08,1.13-2.63,4.23,0,4.3,1.12,4.3S673.22,121.37,673.77,118.24Z" transform="translate(-119.19 -7.59)"/><path class="cls-11" d="M679.54,118.22h.54l-3.08,6.7h-.55Z" transform="translate(-119.19 -7.59)"/><path class="cls-11" d="M680.58,122.4l1-1.09a2.87,2.87,0,0,0,2.35,1.19,2.23,2.23,0,0,0,2.37-1.79c.21-1.2-.41-2-2.85-2l.22-1.25c2.13,0,3-.81,3.17-1.89a1.26,1.26,0,0,0-1.38-1.58,3.87,3.87,0,0,0-2.34,1l-.7-1.05a5.41,5.41,0,0,1,3.33-1.31c1.94,0,3.12,1,2.81,2.79a3.28,3.28,0,0,1-2.31,2.54l0,.07a2.22,2.22,0,0,1,1.76,2.7,4,4,0,0,1-4.16,3.1A3.72,3.72,0,0,1,680.58,122.4Z" transform="translate(-119.19 -7.59)"/><path class="cls-11" d="M692.73,118.22h.55l-3.09,6.7h-.55Z" transform="translate(-119.19 -7.59)"/><path class="cls-11" d="M693.78,122.4l1-1.09a2.86,2.86,0,0,0,2.34,1.19,2.24,2.24,0,0,0,2.38-1.79c.21-1.2-.42-2-2.85-2l.22-1.25c2.12,0,3-.81,3.16-1.89s-.36-1.56-1.38-1.58a3.87,3.87,0,0,0-2.34,1l-.69-1.05a5.38,5.38,0,0,1,3.32-1.31c1.94,0,3.13,1,2.81,2.79a3.27,3.27,0,0,1-2.31,2.54v.07a2.23,2.23,0,0,1,1.76,2.7,4,4,0,0,1-4.16,3.1A3.71,3.71,0,0,1,693.78,122.4Z" transform="translate(-119.19 -7.59)"/><path class="cls-11" d="M704.48,122.29h2.37l1.32-7.51h-1.94l.19-1.07a7.64,7.64,0,0,0,2.5-.83h1.27l-1.66,9.41h2.12l-.25,1.4h-6.16Z" transform="translate(-119.19 -7.59)"/><path class="cls-9" d="M302.63,46.26a5.21,5.21,0,0,0,4,3.46,9.63,9.63,0,0,0-1.47,1.59,5.83,5.83,0,0,1-3.92-3.66A9.48,9.48,0,0,1,296,51.36a5.32,5.32,0,0,0-.88-1.48A7.75,7.75,0,0,0,300,46.26h-3.8l.31-1.76h4.17a5.57,5.57,0,0,0,.14-.66l.19-1.08h-3.73l.31-1.76h9.51l-.31,1.76h-3.94l-.19,1.11c0,.2-.08.41-.13.63h4.4l-.31,1.76Z" transform="translate(-119.19 -7.59)"/><path class="cls-9" d="M316.83,46.26a5.21,5.21,0,0,0,4,3.46,9.63,9.63,0,0,0-1.47,1.59,5.83,5.83,0,0,1-3.92-3.66,9.48,9.48,0,0,1-5.27,3.71,5.32,5.32,0,0,0-.88-1.48,7.72,7.72,0,0,0,4.92-3.62h-3.8l.31-1.76h4.17a5.57,5.57,0,0,0,.14-.66l.19-1.08h-3.73l.31-1.76h9.51L321,42.76H317l-.19,1.11c0,.2-.08.41-.13.63h4.4l-.31,1.76Z" transform="translate(-119.19 -7.59)"/><rect class="cls-12" x="628.73" y="35.51" width="87.25" height="48.71" rx="4.59" ry="4.59" transform="translate(414.59 712.91) rotate(-83.24)"/><path class="cls-13" d="M687.39,106.88c-.23,0-.47,0-.7,0l-39.25-4.66a5.91,5.91,0,0,1-5.19-6.58l9.19-77.52a5.92,5.92,0,0,1,5.88-5.23,5.48,5.48,0,0,1,.7,0l39.25,4.65a5.93,5.93,0,0,1,5.19,6.59l-9.18,77.52A5.94,5.94,0,0,1,687.39,106.88ZM657.32,15.52a3.25,3.25,0,0,0-3.22,2.87l-9.19,77.52a3.26,3.26,0,0,0,2.84,3.62L687,104.18a3.26,3.26,0,0,0,3.62-2.85l9.19-77.52A3.25,3.25,0,0,0,697,20.2l-39.25-4.66Z" transform="translate(-119.19 -7.59)"/><rect class="cls-11" x="637.68" y="36.57" width="69.58" height="40.14" rx="4.59" ry="4.59" transform="translate(417.88 710.18) rotate(-83.24)"/><rect class="cls-14" x="665.04" y="86.07" width="5.35" height="21.41" rx="2.61" ry="2.61" transform="translate(373.84 740.86) rotate(-83.24)"/><path class="cls-13" d="M675.75,101.2a2.82,2.82,0,0,1-.41,0l-16.08-1.91a3.42,3.42,0,0,1-3-3.79v-.13a3.42,3.42,0,0,1,3.79-3l16.08,1.91a3.42,3.42,0,0,1,3,3.79l0,.14A3.4,3.4,0,0,1,675.75,101.2ZM659.68,94a1.8,1.8,0,0,0-1.79,1.59l0,.13a1.81,1.81,0,0,0,1.58,2l16.08,1.91a1.83,1.83,0,0,0,2-1.59v-.13a1.81,1.81,0,0,0-1.58-2L659.89,94Z" transform="translate(-119.19 -7.59)"/><path class="cls-13" d="M669.23,80.77h-.16a1.33,1.33,0,0,1-1.17-1.48L673,36.22a1.34,1.34,0,1,1,2.66.32l-5.1,43.05A1.34,1.34,0,0,1,669.23,80.77Z" transform="translate(-119.19 -7.59)"/><path class="cls-13" d="M659.45,35.42h-.1a.8.8,0,0,1-.7-.89l.76-6.38a.8.8,0,0,1,1.59.19l-.75,6.38A.81.81,0,0,1,659.45,35.42Z" transform="translate(-119.19 -7.59)"/><path class="cls-13" d="M658.5,43.39h-.09a.81.81,0,0,1-.7-.9l.69-5.84a.8.8,0,1,1,1.59.19l-.69,5.84A.8.8,0,0,1,658.5,43.39Z" transform="translate(-119.19 -7.59)"/><path class="cls-13" d="M657.56,51.36h-.1a.8.8,0,0,1-.7-.89l.63-5.32a.81.81,0,0,1,1.6.19l-.63,5.32A.81.81,0,0,1,657.56,51.36Z" transform="translate(-119.19 -7.59)"/><path class="cls-13" d="M656.55,59.87h-.09a.81.81,0,0,1-.71-.89l.7-5.85a.8.8,0,1,1,1.59.19l-.69,5.85A.81.81,0,0,1,656.55,59.87Z" transform="translate(-119.19 -7.59)"/><path class="cls-13" d="M655.54,68.37h-.09a.79.79,0,0,1-.7-.89l.69-5.85a.8.8,0,0,1,1.59.19l-.69,5.85A.81.81,0,0,1,655.54,68.37Z" transform="translate(-119.19 -7.59)"/><path class="cls-13" d="M654.6,76.35h-.1a.8.8,0,0,1-.7-.89l.63-5.32a.79.79,0,0,1,.89-.7.81.81,0,0,1,.71.89l-.64,5.32A.79.79,0,0,1,654.6,76.35Z" transform="translate(-119.19 -7.59)"/><path class="cls-13" d="M653.84,82.73h-.09a.81.81,0,0,1-.71-.89l.45-3.72a.8.8,0,0,1,.89-.71.82.82,0,0,1,.7.9L654.64,82A.81.81,0,0,1,653.84,82.73Z" transform="translate(-119.19 -7.59)"/><g class="cls-15"><circle class="cls-16" cx="558.25" cy="47.83" r="14.61"/><path class="cls-13" d="M677.46,70.84a15.91,15.91,0,0,1-1.83-.11A15.41,15.41,0,0,1,677.42,40a15.91,15.91,0,0,1,1.83.1,15.42,15.42,0,0,1-1.79,30.73Zm0-29.23a13.81,13.81,0,0,0-1.61,27.52,13,13,0,0,0,1.65.1,13.81,13.81,0,0,0,1.6-27.52A12.78,12.78,0,0,0,677.42,41.61Z" transform="translate(-119.19 -7.59)"/><path class="cls-7" d="M682.22,47.57l-7-.83a.41.41,0,0,0-.41.28l-5.2,17.25a.26.26,0,0,0,.23.35l2.8.33a.4.4,0,0,0,.42-.27l2.06-6.86,3.86.45a6.82,6.82,0,0,0,7-4.71,4.48,4.48,0,0,0-3.8-6m-2.57,7.57h0l-3.25-.38a.26.26,0,0,1-.23-.35l1.17-3.89a.4.4,0,0,1,.41-.27l3.26.38a1.9,1.9,0,0,1,1.6,2.53,2.88,2.88,0,0,1-3,2" transform="translate(-119.19 -7.59)"/><path class="cls-11" d="M681.54,46.23l-7-.83a.4.4,0,0,0-.41.28L669,62.93a.26.26,0,0,0,.23.35l2.8.33a.41.41,0,0,0,.42-.27l2.06-6.86,3.86.45a6.8,6.8,0,0,0,7-4.71,4.47,4.47,0,0,0-3.79-6M679,53.8h0l-3.26-.38a.27.27,0,0,1-.22-.35l1.17-3.89a.4.4,0,0,1,.41-.27l3.25.38a1.89,1.89,0,0,1,1.61,2.53,2.89,2.89,0,0,1-3,2" transform="translate(-119.19 -7.59)"/><path class="cls-11" d="M675.85,67.91a12.91,12.91,0,1,0,3-25.65,15.38,15.38,0,0,0-2.57-.06h0s-.27.07-.28.19h0c0,.15.09.29.22.25h0a.24.24,0,0,0,.12,0,12.9,12.9,0,0,1,2.48,0,12.52,12.52,0,1,1-10.32,3.6s.21-.13.23-.26a.23.23,0,0,0-.2-.25c-.13,0-.31.22-.31.22a12.9,12.9,0,0,0,7.61,21.92Z" transform="translate(-119.19 -7.59)"/><path class="cls-11" d="M675,42.85a.25.25,0,0,1,.29-.23h0a.25.25,0,0,1,.22.29h0a.25.25,0,0,1-.29.22h0a.24.24,0,0,1-.22-.28Z" transform="translate(-119.19 -7.59)"/></g><circle class="cls-16" cx="581.49" cy="29.14" r="10.86"/><path class="cls-13" d="M700.69,48.39a10.64,10.64,0,0,1-1.38-.08,11.66,11.66,0,0,1,1.36-23.24,12.77,12.77,0,0,1,1.38.08,11.66,11.66,0,0,1-1.36,23.24Zm0-21.72a10.06,10.06,0,0,0-1.17,20,11.87,11.87,0,0,0,1.19.07,10.06,10.06,0,0,0,1.17-20A11.87,11.87,0,0,0,700.67,26.67Z" transform="translate(-119.19 -7.59)"/><path class="cls-7" d="M704.23,30.9l-5.18-.62a.31.31,0,0,0-.31.21l-3.86,12.82a.19.19,0,0,0,.16.26l2.09.25a.31.31,0,0,0,.31-.21l1.53-5.1,2.87.34a5.07,5.07,0,0,0,5.21-3.5,3.32,3.32,0,0,0-2.82-4.45m-1.91,5.62h0l-2.42-.28a.19.19,0,0,1-.16-.26l.87-2.89a.27.27,0,0,1,.3-.2l2.42.28a1.41,1.41,0,0,1,1.19,1.88,2.14,2.14,0,0,1-2.2,1.47" transform="translate(-119.19 -7.59)"/><path class="cls-11" d="M703.73,29.9l-5.19-.62a.31.31,0,0,0-.31.21l-3.86,12.82a.19.19,0,0,0,.17.26l2.08.25a.31.31,0,0,0,.31-.21l1.54-5.1,2.86.34a5.06,5.06,0,0,0,5.22-3.5,3.32,3.32,0,0,0-2.82-4.45m-1.92,5.63h0l-2.41-.29a.19.19,0,0,1-.17-.26l.87-2.89a.3.3,0,0,1,.31-.2l2.41.29A1.39,1.39,0,0,1,704,34.05a2.13,2.13,0,0,1-2.2,1.48" transform="translate(-119.19 -7.59)"/><path class="cls-11" d="M699.5,46a9.62,9.62,0,0,0,10.66-8.4A9.4,9.4,0,0,0,702,27a4.32,4.32,0,0,0-1.67,0h0s-.43,0-.44.08h0c0,.11-.05.19,0,.16h0s0,0,0,0a9.15,9.15,0,0,1,1.81,0,9.29,9.29,0,1,1-10.34,8.13,9.2,9.2,0,0,1,2.64-5.46s.16-.1.17-.2a.17.17,0,0,0-.15-.18c-.09,0-.22.16-.22.16A9.58,9.58,0,0,0,699.5,46Z" transform="translate(-119.19 -7.59)"/><path class="cls-11" d="M698.89,27.38a.21.21,0,0,1,.22-.17h0a.21.21,0,0,1,.17.22h0a.2.2,0,0,1-.22.17h0a.2.2,0,0,1-.17-.22Z" transform="translate(-119.19 -7.59)"/><circle class="cls-16" cx="559.41" cy="9.22" r="8.42"/><path class="cls-13" d="M678.6,26a10,10,0,0,1-1.09-.07,9.22,9.22,0,0,1,1.07-18.38,10,10,0,0,1,1.1.06A9.23,9.23,0,0,1,678.6,26Zm0-16.85a7.62,7.62,0,0,0-.88,15.19c.3,0,.6.05.9.05a7.62,7.62,0,0,0,.89-15.18A7,7,0,0,0,678.58,9.19Z" transform="translate(-119.19 -7.59)"/><path class="cls-7" d="M681.35,12.29l-4-.48a.24.24,0,0,0-.24.16l-3,9.94a.14.14,0,0,0,.12.2l1.62.2a.24.24,0,0,0,.24-.16l1.19-4,2.22.27a4,4,0,0,0,4-2.72,2.58,2.58,0,0,0-2.19-3.45m-1.48,4.36h0L678,16.43a.15.15,0,0,1-.13-.2l.68-2.24a.23.23,0,0,1,.23-.16l1.88.22a1.09,1.09,0,0,1,.92,1.46,1.64,1.64,0,0,1-1.7,1.14" transform="translate(-119.19 -7.59)"/><path class="cls-11" d="M681,11.52l-4-.48a.23.23,0,0,0-.23.16l-3,9.94a.15.15,0,0,0,.13.2l1.62.19a.24.24,0,0,0,.24-.16l1.19-3.95,2.22.26a3.91,3.91,0,0,0,4-2.71A2.57,2.57,0,0,0,681,11.52m-1.49,4.36h0l-1.87-.22a.15.15,0,0,1-.13-.2l.67-2.24a.24.24,0,0,1,.24-.16l1.87.22a1.09,1.09,0,0,1,.93,1.46,1.67,1.67,0,0,1-1.71,1.14" transform="translate(-119.19 -7.59)"/><path class="cls-11" d="M677.68,24a7.45,7.45,0,0,0,8.26-6.51,7.29,7.29,0,0,0-6.34-8.23,5.53,5.53,0,0,0-1.3,0h0s-.33,0-.34.08h0c0,.09,0,.15,0,.13h0s0,0,0,0a6.58,6.58,0,0,1,1.4,0,7.21,7.21,0,1,1-6,2.06s.12-.07.12-.14a.13.13,0,0,0-.11-.15c-.07,0-.18.13-.18.13a7.36,7.36,0,0,0-2.12,4.37A7.45,7.45,0,0,0,677.68,24Z" transform="translate(-119.19 -7.59)"/><path class="cls-11" d="M677.21,9.57a.15.15,0,0,1,.16-.14h0a.16.16,0,0,1,.14.17h0a.16.16,0,0,1-.17.13h0a.15.15,0,0,1-.13-.16Z" transform="translate(-119.19 -7.59)"/></svg>