<svg id="分離模式" xmlns="http://www.w3.org/2000/svg" xmlns:xlink="http://www.w3.org/1999/xlink" viewBox="0 0 293.8 143.83"><defs><style>.cls-1,.cls-4{fill:none;}.cls-2{opacity:0.2;}.cls-3{clip-path:url(#clip-path);}.cls-4{stroke:#fff;stroke-miterlimit:10;stroke-width:2px;}</style><clipPath id="clip-path" transform="translate(-700.08 -463.82)"><circle class="cls-1" cx="850.39" cy="536.34" r="44.3"/></clipPath></defs><title>pattern-03</title><g class="cls-2"><g class="cls-3"><line class="cls-4" x1="143.12" y1="0.71" x2="0.71" y2="143.12"/><line class="cls-4" x1="151.02" y1="0.71" x2="8.6" y2="143.12"/><line class="cls-4" x1="158.91" y1="0.71" x2="16.49" y2="143.12"/><line class="cls-4" x1="166.8" y1="0.71" x2="24.39" y2="143.12"/><line class="cls-4" x1="174.7" y1="0.71" x2="32.28" y2="143.12"/><line class="cls-4" x1="182.59" y1="0.71" x2="40.17" y2="143.12"/><line class="cls-4" x1="190.48" y1="0.71" x2="48.07" y2="143.12"/><line class="cls-4" x1="198.38" y1="0.71" x2="55.96" y2="143.12"/><line class="cls-4" x1="206.27" y1="0.71" x2="63.85" y2="143.12"/><line class="cls-4" x1="214.16" y1="0.71" x2="71.75" y2="143.12"/><line class="cls-4" x1="222.06" y1="0.71" x2="79.64" y2="143.12"/><line class="cls-4" x1="229.95" y1="0.71" x2="87.53" y2="143.12"/><line class="cls-4" x1="237.84" y1="0.71" x2="95.43" y2="143.12"/><line class="cls-4" x1="245.74" y1="0.71" x2="103.32" y2="143.12"/><line class="cls-4" x1="253.63" y1="0.71" x2="111.21" y2="143.12"/><line class="cls-4" x1="261.52" y1="0.71" x2="119.11" y2="143.12"/><line class="cls-4" x1="269.42" y1="0.71" x2="127" y2="143.12"/><line class="cls-4" x1="277.31" y1="0.71" x2="134.89" y2="143.12"/><line class="cls-4" x1="285.2" y1="0.71" x2="142.79" y2="143.12"/><line class="cls-4" x1="293.09" y1="0.71" x2="150.68" y2="143.12"/></g></g></svg>