<svg id="分離模式" xmlns="http://www.w3.org/2000/svg" xmlns:xlink="http://www.w3.org/1999/xlink" viewBox="0 0 161.44 61.42"><defs><style>.cls-1,.cls-4{fill:none;}.cls-2{opacity:0.77;}.cls-3{clip-path:url(#clip-path);}.cls-4{stroke:#fff;stroke-miterlimit:10;stroke-width:2px;}</style><clipPath id="clip-path" transform="translate(39.1 -507.68)"><circle class="cls-1" cx="41.62" cy="538.39" r="13.87"/></clipPath></defs><title>pattern-04-s</title><g class="cls-2"><g class="cls-3"><line class="cls-4" x1="60.72" y1="0.71" x2="0.71" y2="60.72"/><line class="cls-4" x1="68.41" y1="0.71" x2="8.4" y2="60.72"/><line class="cls-4" x1="76.1" y1="0.71" x2="16.09" y2="60.72"/><line class="cls-4" x1="83.79" y1="0.71" x2="23.79" y2="60.72"/><line class="cls-4" x1="91.49" y1="0.71" x2="31.48" y2="60.72"/><line class="cls-4" x1="99.18" y1="0.71" x2="39.17" y2="60.72"/><line class="cls-4" x1="106.87" y1="0.71" x2="46.87" y2="60.72"/><line class="cls-4" x1="114.57" y1="0.71" x2="54.56" y2="60.72"/><line class="cls-4" x1="122.26" y1="0.71" x2="62.25" y2="60.72"/><line class="cls-4" x1="129.95" y1="0.71" x2="69.95" y2="60.72"/><line class="cls-4" x1="137.65" y1="0.71" x2="77.64" y2="60.72"/><line class="cls-4" x1="145.34" y1="0.71" x2="85.33" y2="60.72"/><line class="cls-4" x1="153.03" y1="0.71" x2="93.03" y2="60.72"/><line class="cls-4" x1="160.73" y1="0.71" x2="100.72" y2="60.72"/></g></g></svg>