<?xml version="1.0" encoding="utf-8"?>
<!-- Generator: Adobe Illustrator 19.1.0, SVG Export Plug-In . SVG Version: 6.00 Build 0)  -->
<svg version="1.1" id="圖層_1" xmlns="http://www.w3.org/2000/svg" xmlns:xlink="http://www.w3.org/1999/xlink" x="0px" y="0px"
	 viewBox="0 0 75 75" style="enable-background:new 0 0 75 75;" xml:space="preserve">
<style type="text/css">
	.st0{fill:#2F2D7E;}
	.st1{fill:#FFFFFF;}
</style>
<g>
	<path class="st0" d="M74,37.5C74,57.6,57.7,74,37.5,74C17.4,74,1,57.6,1,37.5C1,17.4,17.4,1,37.5,1C57.7,1,74,17.4,74,37.5z"/>
	<g>
		<path class="st1" d="M53,44.8c-0.7,0-1.4-0.3-2-0.8L35.7,28.7c-1.1-1.1-1.1-2.9,0-4c1.1-1.1,2.9-1.1,4,0L55,40
			c1.1,1.1,1.1,2.9,0,4C54.4,44.6,53.7,44.8,53,44.8z"/>
	</g>
	<g>
		<path class="st1" d="M22,45.3c-0.7,0-1.4-0.3-2-0.8c-1.1-1.1-1.1-2.9,0-4l15.7-15.7c1.1-1.1,2.9-1.1,4,0c1.1,1.1,1.1,2.9,0,4
			L24,44.4C23.5,45,22.7,45.3,22,45.3z"/>
	</g>
</g>
</svg>
